#tb 0: 1/10
0,          0,          0,        1,    21600, 0x845098fc
0,          1,          1,        1,    21600, 0xc28e8bf0
0,          2,          2,        1,    21600, 0x2f418fb4
0,          3,          3,        1,    21600, 0x051d7a0e
0,          4,          4,        1,    21600, 0x1b36aa7c
0,          5,          5,        1,    21600, 0xb9e2ad38
0,          6,          6,        1,    21600, 0x8dc99b60
0,          7,          7,        1,    21600, 0xa3fa789a
0,          8,          8,        1,    21600, 0x1fdbade2
0,          9,          9,        1,    21600, 0x4f4ac164
0,         10,         10,        1,    21600, 0x0ea5cb50
0,         11,         11,        1,    21600, 0xfb659528
0,         12,         12,        1,    21600, 0xac5790f8
0,         13,         13,        1,    21600, 0x9762beb4
0,         14,         14,        1,    21600, 0x29b0da0a
0,         15,         15,        1,    21600, 0x6d88b0da
0,         16,         16,        1,    21600, 0x687b8efa
0,         17,         17,        1,    21600, 0xcd726220
0,         18,         18,        1,    21600, 0xa1766598
0,         19,         19,        1,    21600, 0xff4b8074
0,         20,         20,        1,    21600, 0x845098fc
0,         21,         21,        1,    21600, 0xdb259e08
0,         22,         22,        1,    21600, 0xb6bda5a0
0,         23,         23,        1,    21600, 0xbb998962
0,         24,         24,        1,    21600, 0x28aa7b7c
0,         25,         25,        1,    21600, 0x1ad1a15c
0,         26,         26,        1,    21600, 0xb535a128
0,         27,         27,        1,    21600, 0x4dbf968a
0,         28,         28,        1,    21600, 0xfe90a8d6
0,         29,         29,        1,    21600, 0xf63fabf0
0,         30,         30,        1,    21600, 0xd6fabe58
0,         31,         31,        1,    21600, 0x172eb09c
0,         32,         32,        1,    21600, 0x44f8a8fe
0,         33,         33,        1,    21600, 0x29429a06
0,         34,         34,        1,    21600, 0xb12f8cc4
0,         35,         35,        1,    21600, 0xd0c78cb4
0,         36,         36,        1,    21600, 0x97e17e0c
0,         37,         37,        1,    21600, 0xf8ac6700
0,         38,         38,        1,    21600, 0xf9c17c94
0,         39,         39,        1,    21600, 0xb10e8c54
